# xmcd
#
# Track frame offsets: 
#        150
#        20002
#        31576
#        44854
#        61453
#        82189
#        100879
#        113176
#        127892
#        143728
#        159563
#        179296
#        189416
#        199939
#        208607
#        218977
#        229687
#        238774
#        254635
#        269503
#        281612
#        292246
#        302782
#
# Disc length: 4232 seconds
#
# Revision: 1
# Processed by: cddbd v1.5.2PL0 Copyright (c) Steve Scherf et al.
# Submitted via: ExactAudioCopy v0.99pb4
#
DISCID=68108617
DTITLE=Various Artist - Country's Most Wanted Vol 3
DYEAR=1900
DGENRE=Country
TTITLE0=Bellamy Brothers - If I Said You Have A Beautiful Body
TTITLE1=Tammy Wynette - D.I.V.O.R.C.E.
TTITLE2=Mel McDaniel - Bay's Got Her Blue Jeans On
TTITLE3=Gary Morris - Headed For A Heartache
TTITLE4=Tanya Tucker - Texas When I Die
TTITLE5=T.G. Sheppard - Last Cheater's Waltz
TTITLE6=Mel Tillis - Ruby Don't Take Your Love To Town
TTITLE7=Ed Bruce - Your The Best break This Old Heart Has Ever Seen
TTITLE8=Gail Davis - Somone Is Looking For Somone Like You
TTITLE9=Gene Watson - What She Don't Know Won't Hurt Her
TTITLE10=Lee Greenwood - God Bless The USA
TTITLE11=Faron Young - Hello Walls
TTITLE12=Leroy Van Dyke - Walk On By
TTITLE13=Jimmy Dean - Big Band John
TTITLE14=Tammy Wynette - Another Chance
TTITLE15=Tom T. Hall - The Year That Clayton Delaney Died
TTITLE16=Porter Wagoner - A Satisfied Mind
TTITLE17=George Jones - He Stopped Loving Her Today
TTITLE18=Jeannie C. Riley - Harper Valley P.T.A.
TTITLE19=Tex Williams - Smoke! Smoke! Smoke! That Cigarette
TTITLE20=Rex Allen Snr - Cool Water
TTITLE21=Boxcar Willie - Wabash Cannonball
TTITLE22=Detroit City - Mel Tillis
EXTD=
EXTT0=
EXTT1=
EXTT2=
EXTT3=
EXTT4=
EXTT5=
EXTT6=
EXTT7=
EXTT8=
EXTT9=
EXTT10=
EXTT11=
EXTT12=
EXTT13=
EXTT14=
EXTT15=
EXTT16=
EXTT17=
EXTT18=
EXTT19=
EXTT20=
EXTT21=
EXTT22=
PLAYORDER=
